<mxfile host="65bd71144e">
    <diagram id="wNNmdqPT10lM7F1tUYv5" name="Page-1">
        <mxGraphModel dx="925" dy="645" grid="0" gridSize="10" guides="1" tooltips="1" connect="1" arrows="1" fold="1" page="0" pageScale="1" pageWidth="1200" pageHeight="1600" math="0" shadow="0">
            <root>
                <mxCell id="0"/>
                <mxCell id="1" parent="0"/>
                <mxCell id="3" value="&lt;u&gt;Course&lt;/u&gt;" style="rounded=0;whiteSpace=wrap;html=1;" parent="1" vertex="1">
                    <mxGeometry x="180" y="180" width="120" height="60" as="geometry"/>
                </mxCell>
                <mxCell id="4" value="Department" style="rounded=0;whiteSpace=wrap;html=1;" parent="1" vertex="1">
                    <mxGeometry x="300" y="180" width="120" height="60" as="geometry"/>
                </mxCell>
                <mxCell id="5" value="HeadOfDep" style="rounded=0;whiteSpace=wrap;html=1;" parent="1" vertex="1">
                    <mxGeometry x="420" y="180" width="120" height="60" as="geometry"/>
                </mxCell>
                <mxCell id="6" value="Credits" style="rounded=0;whiteSpace=wrap;html=1;" parent="1" vertex="1">
                    <mxGeometry x="540" y="180" width="120" height="60" as="geometry"/>
                </mxCell>
                <mxCell id="7" value="Course_level" style="rounded=0;whiteSpace=wrap;html=1;" parent="1" vertex="1">
                    <mxGeometry x="660" y="180" width="120" height="60" as="geometry"/>
                </mxCell>
                <mxCell id="8" value="&lt;u&gt;TutorId&lt;/u&gt;" style="rounded=0;whiteSpace=wrap;html=1;" parent="1" vertex="1">
                    <mxGeometry x="780" y="180" width="120" height="60" as="geometry"/>
                </mxCell>
                <mxCell id="9" value="Semester" style="rounded=0;whiteSpace=wrap;html=1;" parent="1" vertex="1">
                    <mxGeometry x="900" y="180" width="120" height="60" as="geometry"/>
                </mxCell>
                <mxCell id="10" value="Year" style="rounded=0;whiteSpace=wrap;html=1;" parent="1" vertex="1">
                    <mxGeometry x="1020" y="180" width="120" height="60" as="geometry"/>
                </mxCell>
                <mxCell id="11" value="&lt;u&gt;Days&lt;/u&gt;" style="rounded=0;whiteSpace=wrap;html=1;" parent="1" vertex="1">
                    <mxGeometry x="1140" y="180" width="120" height="60" as="geometry"/>
                </mxCell>
                <mxCell id="12" value="Students" style="rounded=0;whiteSpace=wrap;html=1;" parent="1" vertex="1">
                    <mxGeometry x="1260" y="180" width="120" height="60" as="geometry"/>
                </mxCell>
                <mxCell id="15" value="" style="edgeStyle=segmentEdgeStyle;endArrow=classic;html=1;curved=0;rounded=0;endSize=8;startSize=8;exitX=0.5;exitY=1;exitDx=0;exitDy=0;entryX=0.5;entryY=1;entryDx=0;entryDy=0;" parent="1" source="3" target="4" edge="1">
                    <mxGeometry width="50" height="50" relative="1" as="geometry">
                        <mxPoint x="150" y="420" as="sourcePoint"/>
                        <mxPoint x="200" y="370" as="targetPoint"/>
                        <Array as="points">
                            <mxPoint x="240" y="280"/>
                            <mxPoint x="360" y="280"/>
                        </Array>
                    </mxGeometry>
                </mxCell>
                <mxCell id="16" value="" style="edgeStyle=segmentEdgeStyle;endArrow=classic;html=1;curved=0;rounded=0;endSize=8;startSize=8;entryX=0.5;entryY=1;entryDx=0;entryDy=0;" parent="1" target="5" edge="1">
                    <mxGeometry width="50" height="50" relative="1" as="geometry">
                        <mxPoint x="360" y="280" as="sourcePoint"/>
                        <mxPoint x="470" y="280" as="targetPoint"/>
                    </mxGeometry>
                </mxCell>
                <mxCell id="17" value="" style="edgeStyle=segmentEdgeStyle;endArrow=classic;html=1;curved=0;rounded=0;endSize=8;startSize=8;" parent="1" target="10" edge="1">
                    <mxGeometry width="50" height="50" relative="1" as="geometry">
                        <mxPoint x="480" y="280" as="sourcePoint"/>
                        <mxPoint x="530" y="310" as="targetPoint"/>
                    </mxGeometry>
                </mxCell>
                <mxCell id="18" value="" style="edgeStyle=segmentEdgeStyle;endArrow=classic;html=1;curved=0;rounded=0;endSize=8;startSize=8;exitX=0.5;exitY=1;exitDx=0;exitDy=0;entryX=0.5;entryY=1;entryDx=0;entryDy=0;" parent="1" source="3" target="7" edge="1">
                    <mxGeometry width="50" height="50" relative="1" as="geometry">
                        <mxPoint x="480" y="270" as="sourcePoint"/>
                        <mxPoint x="500" y="300" as="targetPoint"/>
                        <Array as="points">
                            <mxPoint x="480" y="240"/>
                            <mxPoint x="480" y="280"/>
                            <mxPoint x="720" y="280"/>
                        </Array>
                    </mxGeometry>
                </mxCell>
                <mxCell id="21" value="" style="edgeStyle=segmentEdgeStyle;endArrow=classic;html=1;curved=0;rounded=0;endSize=8;startSize=8;exitX=0.5;exitY=0;exitDx=0;exitDy=0;" parent="1" source="8" target="7" edge="1">
                    <mxGeometry width="50" height="50" relative="1" as="geometry">
                        <mxPoint x="710" y="120" as="sourcePoint"/>
                        <mxPoint x="760" y="70" as="targetPoint"/>
                        <Array as="points">
                            <mxPoint x="840" y="150"/>
                            <mxPoint x="730" y="150"/>
                        </Array>
                    </mxGeometry>
                </mxCell>
                <mxCell id="22" value="" style="edgeStyle=segmentEdgeStyle;endArrow=classic;html=1;curved=0;rounded=0;endSize=8;startSize=8;exitX=0.5;exitY=0;exitDx=0;exitDy=0;entryX=0.5;entryY=0;entryDx=0;entryDy=0;" parent="1" source="8" target="10" edge="1">
                    <mxGeometry width="50" height="50" relative="1" as="geometry">
                        <mxPoint x="820" y="140" as="sourcePoint"/>
                        <mxPoint x="870" y="90" as="targetPoint"/>
                        <Array as="points">
                            <mxPoint x="840" y="150"/>
                            <mxPoint x="1080" y="150"/>
                        </Array>
                    </mxGeometry>
                </mxCell>
                <mxCell id="23" value="" style="edgeStyle=segmentEdgeStyle;endArrow=classic;html=1;curved=0;rounded=0;endSize=8;startSize=8;" parent="1" target="5" edge="1">
                    <mxGeometry width="50" height="50" relative="1" as="geometry">
                        <mxPoint x="730" y="150" as="sourcePoint"/>
                        <mxPoint x="520" y="100" as="targetPoint"/>
                    </mxGeometry>
                </mxCell>
                <mxCell id="24" value="" style="edgeStyle=segmentEdgeStyle;endArrow=classic;html=1;curved=0;rounded=0;endSize=8;startSize=8;" parent="1" target="4" edge="1">
                    <mxGeometry width="50" height="50" relative="1" as="geometry">
                        <mxPoint x="480" y="150" as="sourcePoint"/>
                        <mxPoint x="260" y="70" as="targetPoint"/>
                    </mxGeometry>
                </mxCell>
                <mxCell id="25" value="" style="edgeStyle=segmentEdgeStyle;endArrow=classic;html=1;curved=0;rounded=0;endSize=8;startSize=8;entryX=0.5;entryY=0;entryDx=0;entryDy=0;exitX=0.5;exitY=0;exitDx=0;exitDy=0;" parent="1" source="3" target="6" edge="1">
                    <mxGeometry width="50" height="50" relative="1" as="geometry">
                        <mxPoint x="190" y="150" as="sourcePoint"/>
                        <mxPoint x="240" y="100" as="targetPoint"/>
                        <Array as="points">
                            <mxPoint x="240" y="130"/>
                            <mxPoint x="600" y="130"/>
                        </Array>
                    </mxGeometry>
                </mxCell>
                <mxCell id="26" value="" style="endArrow=none;html=1;entryX=0.5;entryY=0;entryDx=0;entryDy=0;" parent="1" target="8" edge="1">
                    <mxGeometry width="50" height="50" relative="1" as="geometry">
                        <mxPoint x="600" y="130" as="sourcePoint"/>
                        <mxPoint x="810" y="80" as="targetPoint"/>
                        <Array as="points">
                            <mxPoint x="760" y="130"/>
                            <mxPoint x="840" y="130"/>
                        </Array>
                    </mxGeometry>
                </mxCell>
                <mxCell id="27" value="" style="edgeStyle=segmentEdgeStyle;endArrow=classic;html=1;curved=0;rounded=0;endSize=8;startSize=8;exitX=0.5;exitY=0;exitDx=0;exitDy=0;" parent="1" source="11" target="12" edge="1">
                    <mxGeometry width="50" height="50" relative="1" as="geometry">
                        <mxPoint x="1130" y="140" as="sourcePoint"/>
                        <mxPoint x="1180" y="90" as="targetPoint"/>
                        <Array as="points">
                            <mxPoint x="1200" y="100"/>
                            <mxPoint x="1320" y="100"/>
                        </Array>
                    </mxGeometry>
                </mxCell>
                <mxCell id="28" value="" style="edgeStyle=segmentEdgeStyle;endArrow=classic;html=1;curved=0;rounded=0;endSize=8;startSize=8;exitX=0.5;exitY=0;exitDx=0;exitDy=0;entryX=0.5;entryY=0;entryDx=0;entryDy=0;" parent="1" source="3" target="12" edge="1">
                    <mxGeometry width="50" height="50" relative="1" as="geometry">
                        <mxPoint x="150" y="160" as="sourcePoint"/>
                        <mxPoint x="200" y="110" as="targetPoint"/>
                        <Array as="points">
                            <mxPoint x="240" y="100"/>
                            <mxPoint x="1320" y="100"/>
                        </Array>
                    </mxGeometry>
                </mxCell>
                <mxCell id="29" value="" style="edgeStyle=segmentEdgeStyle;endArrow=classic;html=1;curved=0;rounded=0;endSize=8;startSize=8;entryX=0.5;entryY=0;entryDx=0;entryDy=0;exitX=0.5;exitY=0;exitDx=0;exitDy=0;" parent="1" source="8" target="12" edge="1">
                    <mxGeometry width="50" height="50" relative="1" as="geometry">
                        <mxPoint x="770" y="390" as="sourcePoint"/>
                        <mxPoint x="820" y="340" as="targetPoint"/>
                        <Array as="points">
                            <mxPoint x="840" y="100"/>
                            <mxPoint x="1320" y="100"/>
                        </Array>
                    </mxGeometry>
                </mxCell>
                <mxCell id="30" value="" style="endArrow=classic;html=1;" parent="1" target="9" edge="1">
                    <mxGeometry width="50" height="50" relative="1" as="geometry">
                        <mxPoint x="960" y="100" as="sourcePoint"/>
                        <mxPoint x="940" y="50" as="targetPoint"/>
                    </mxGeometry>
                </mxCell>
                <mxCell id="31" value="&lt;u&gt;TutorId&lt;/u&gt;" style="rounded=0;whiteSpace=wrap;html=1;" parent="1" vertex="1">
                    <mxGeometry x="265" y="670" width="120" height="60" as="geometry"/>
                </mxCell>
                <mxCell id="35" value="Course_level" style="rounded=0;whiteSpace=wrap;html=1;" parent="1" vertex="1">
                    <mxGeometry x="385" y="670" width="120" height="60" as="geometry"/>
                </mxCell>
                <mxCell id="36" value="Year" style="rounded=0;whiteSpace=wrap;html=1;" parent="1" vertex="1">
                    <mxGeometry x="495" y="670" width="120" height="60" as="geometry"/>
                </mxCell>
                <mxCell id="37" value="" style="edgeStyle=segmentEdgeStyle;endArrow=classic;html=1;curved=0;rounded=0;endSize=8;startSize=8;exitX=0.5;exitY=1;exitDx=0;exitDy=0;entryX=0.5;entryY=1;entryDx=0;entryDy=0;" parent="1" source="31" edge="1">
                    <mxGeometry width="50" height="50" relative="1" as="geometry">
                        <mxPoint x="375" y="820" as="sourcePoint"/>
                        <mxPoint x="445" y="730" as="targetPoint"/>
                        <Array as="points">
                            <mxPoint x="325" y="760"/>
                            <mxPoint x="445" y="760"/>
                        </Array>
                    </mxGeometry>
                </mxCell>
                <mxCell id="38" value="" style="edgeStyle=segmentEdgeStyle;endArrow=classic;html=1;curved=0;rounded=0;endSize=8;startSize=8;entryX=0.5;entryY=1;entryDx=0;entryDy=0;" parent="1" edge="1">
                    <mxGeometry width="50" height="50" relative="1" as="geometry">
                        <mxPoint x="445" y="760" as="sourcePoint"/>
                        <mxPoint x="565" y="730" as="targetPoint"/>
                    </mxGeometry>
                </mxCell>
                <mxCell id="42" value="&lt;u&gt;TutorId&lt;/u&gt;" style="rounded=0;whiteSpace=wrap;html=1;" parent="1" vertex="1">
                    <mxGeometry x="230" y="860" width="120" height="60" as="geometry"/>
                </mxCell>
                <mxCell id="43" value="&lt;u&gt;Course&lt;/u&gt;" style="rounded=0;whiteSpace=wrap;html=1;" parent="1" vertex="1">
                    <mxGeometry x="350" y="860" width="120" height="60" as="geometry"/>
                </mxCell>
                <mxCell id="44" value="Credits" style="rounded=0;whiteSpace=wrap;html=1;" parent="1" vertex="1">
                    <mxGeometry x="470" y="860" width="120" height="60" as="geometry"/>
                </mxCell>
                <mxCell id="48" value="" style="edgeStyle=segmentEdgeStyle;endArrow=classic;html=1;curved=0;rounded=0;endSize=8;startSize=8;entryX=0.5;entryY=1;entryDx=0;entryDy=0;" parent="1" target="44" edge="1">
                    <mxGeometry width="50" height="50" relative="1" as="geometry">
                        <mxPoint x="410" y="950" as="sourcePoint"/>
                        <mxPoint x="490" y="950" as="targetPoint"/>
                    </mxGeometry>
                </mxCell>
                <mxCell id="51" value="" style="edgeStyle=segmentEdgeStyle;endArrow=classic;html=1;curved=0;rounded=0;endSize=8;startSize=8;exitX=0.5;exitY=1;exitDx=0;exitDy=0;" parent="1" source="42" edge="1">
                    <mxGeometry width="50" height="50" relative="1" as="geometry">
                        <mxPoint x="480" y="970" as="sourcePoint"/>
                        <mxPoint x="530" y="920" as="targetPoint"/>
                        <Array as="points">
                            <mxPoint x="283" y="920"/>
                            <mxPoint x="283" y="950"/>
                            <mxPoint x="530" y="950"/>
                        </Array>
                    </mxGeometry>
                </mxCell>
                <mxCell id="53" value="" style="endArrow=none;html=1;entryX=0.5;entryY=1;entryDx=0;entryDy=0;" parent="1" target="43" edge="1">
                    <mxGeometry width="50" height="50" relative="1" as="geometry">
                        <mxPoint x="410" y="950" as="sourcePoint"/>
                        <mxPoint x="410" y="980" as="targetPoint"/>
                    </mxGeometry>
                </mxCell>
                <mxCell id="54" value="&lt;u&gt;TutorId&lt;/u&gt;" style="rounded=0;whiteSpace=wrap;html=1;" parent="1" vertex="1">
                    <mxGeometry x="200" y="1220" width="120" height="60" as="geometry"/>
                </mxCell>
                <mxCell id="65" style="edgeStyle=none;html=1;exitX=0.5;exitY=1;exitDx=0;exitDy=0;entryX=0.5;entryY=1;entryDx=0;entryDy=0;" parent="1" source="55" target="57" edge="1">
                    <mxGeometry relative="1" as="geometry">
                        <Array as="points">
                            <mxPoint x="380" y="1330"/>
                            <mxPoint x="500" y="1330"/>
                            <mxPoint x="560" y="1330"/>
                            <mxPoint x="620" y="1330"/>
                        </Array>
                    </mxGeometry>
                </mxCell>
                <mxCell id="55" value="&lt;u&gt;Course&lt;/u&gt;" style="rounded=0;whiteSpace=wrap;html=1;" parent="1" vertex="1">
                    <mxGeometry x="320" y="1220" width="120" height="60" as="geometry"/>
                </mxCell>
                <mxCell id="66" style="edgeStyle=none;html=1;exitX=0.5;exitY=1;exitDx=0;exitDy=0;entryX=0.5;entryY=1;entryDx=0;entryDy=0;" parent="1" source="56" target="57" edge="1">
                    <mxGeometry relative="1" as="geometry">
                        <Array as="points">
                            <mxPoint x="500" y="1310"/>
                            <mxPoint x="510" y="1330"/>
                            <mxPoint x="560" y="1330"/>
                            <mxPoint x="620" y="1330"/>
                        </Array>
                    </mxGeometry>
                </mxCell>
                <mxCell id="56" value="&lt;u&gt;Days&lt;/u&gt;" style="rounded=0;whiteSpace=wrap;html=1;" parent="1" vertex="1">
                    <mxGeometry x="440" y="1220" width="120" height="60" as="geometry"/>
                </mxCell>
                <mxCell id="57" value="Students" style="rounded=0;whiteSpace=wrap;html=1;" parent="1" vertex="1">
                    <mxGeometry x="560" y="1220" width="120" height="60" as="geometry"/>
                </mxCell>
                <mxCell id="58" value="Semester" style="rounded=0;whiteSpace=wrap;html=1;" parent="1" vertex="1">
                    <mxGeometry x="680" y="1220" width="120" height="60" as="geometry"/>
                </mxCell>
                <mxCell id="64" value="" style="edgeStyle=segmentEdgeStyle;endArrow=classic;html=1;curved=0;rounded=0;endSize=8;startSize=8;entryX=0.5;entryY=1;entryDx=0;entryDy=0;exitX=0.5;exitY=1;exitDx=0;exitDy=0;" parent="1" source="54" target="57" edge="1">
                    <mxGeometry width="50" height="50" relative="1" as="geometry">
                        <mxPoint x="250" y="1340" as="sourcePoint"/>
                        <mxPoint x="300" y="1340" as="targetPoint"/>
                        <Array as="points">
                            <mxPoint x="260" y="1330"/>
                            <mxPoint x="620" y="1330"/>
                        </Array>
                    </mxGeometry>
                </mxCell>
                <mxCell id="67" value="" style="edgeStyle=segmentEdgeStyle;endArrow=classic;html=1;curved=0;rounded=0;endSize=8;startSize=8;" parent="1" edge="1">
                    <mxGeometry width="50" height="50" relative="1" as="geometry">
                        <mxPoint x="620" y="1330" as="sourcePoint"/>
                        <mxPoint x="740" y="1280" as="targetPoint"/>
                    </mxGeometry>
                </mxCell>
                <mxCell id="70" style="edgeStyle=none;html=1;exitX=0.5;exitY=1;exitDx=0;exitDy=0;entryX=0.5;entryY=1;entryDx=0;entryDy=0;" parent="1" source="68" target="69" edge="1">
                    <mxGeometry relative="1" as="geometry">
                        <Array as="points">
                            <mxPoint x="347.5" y="1150"/>
                            <mxPoint x="427.5" y="1150"/>
                            <mxPoint x="457.5" y="1150"/>
                            <mxPoint x="547.5" y="1150"/>
                        </Array>
                    </mxGeometry>
                </mxCell>
                <mxCell id="68" value="&lt;u style=&quot;&quot;&gt;Department&lt;/u&gt;" style="rounded=0;whiteSpace=wrap;html=1;" parent="1" vertex="1">
                    <mxGeometry x="287.5" y="1040" width="120" height="60" as="geometry"/>
                </mxCell>
                <mxCell id="69" value="headOfDep" style="rounded=0;whiteSpace=wrap;html=1;" parent="1" vertex="1">
                    <mxGeometry x="487.5" y="1040" width="120" height="60" as="geometry"/>
                </mxCell>
                <mxCell id="71" value="&lt;u&gt;Department&lt;/u&gt;" style="rounded=0;whiteSpace=wrap;html=1;" parent="1" vertex="1">
                    <mxGeometry x="590" y="860" width="120" height="60" as="geometry"/>
                </mxCell>
                <mxCell id="73" value="" style="edgeStyle=segmentEdgeStyle;endArrow=classic;html=1;curved=0;rounded=0;endSize=8;startSize=8;entryX=0.5;entryY=1;entryDx=0;entryDy=0;exitX=0.428;exitY=1.006;exitDx=0;exitDy=0;exitPerimeter=0;" parent="1" source="42" target="71" edge="1">
                    <mxGeometry width="50" height="50" relative="1" as="geometry">
                        <mxPoint x="550" y="970" as="sourcePoint"/>
                        <mxPoint x="600" y="920" as="targetPoint"/>
                        <Array as="points">
                            <mxPoint x="283" y="920"/>
                            <mxPoint x="283" y="950"/>
                            <mxPoint x="650" y="950"/>
                        </Array>
                    </mxGeometry>
                </mxCell>
                <mxCell id="76" value="Table1" style="text;strokeColor=none;fillColor=none;html=1;fontSize=24;fontStyle=1;verticalAlign=middle;align=center;" parent="1" vertex="1">
                    <mxGeometry x="260" y="630" width="100" height="40" as="geometry"/>
                </mxCell>
                <mxCell id="77" value="Table2" style="text;strokeColor=none;fillColor=none;html=1;fontSize=24;fontStyle=1;verticalAlign=middle;align=center;" parent="1" vertex="1">
                    <mxGeometry x="230" y="820" width="100" height="40" as="geometry"/>
                </mxCell>
                <mxCell id="78" value="Table3" style="text;strokeColor=none;fillColor=none;html=1;fontSize=24;fontStyle=1;verticalAlign=middle;align=center;" parent="1" vertex="1">
                    <mxGeometry x="285" y="1000" width="100" height="40" as="geometry"/>
                </mxCell>
                <mxCell id="79" value="Table4" style="text;strokeColor=none;fillColor=none;html=1;fontSize=24;fontStyle=1;verticalAlign=middle;align=center;" parent="1" vertex="1">
                    <mxGeometry x="190" y="1180" width="100" height="40" as="geometry"/>
                </mxCell>
            </root>
        </mxGraphModel>
    </diagram>
</mxfile>